<?xml version="1.0" encoding="utf-8" standalone="yes"?><!-- Generator: Adobe Illustrator 26.0.3, SVG Export Plug-In . SVG Version: 6.00 Build 0)  --><svg xmlns="http://www.w3.org/2000/svg" xmlns:xlink="http://www.w3.org/1999/xlink" version="1.2" baseProfile="tiny-ps" viewBox="0 0 512 512" xml:space="preserve"><title>logo-tiny-ps.svg</title><circle fill="#1A212D" cx="255.8" cy="256" r="256"></circle><path fill="#FFFFFF" d="M403.4,332.5c-4.8,8.6-11.3,18.4-20.1,28.3c-4.7,5.3-12.1,13-22.5,21c-11.7,9-21.9,14.3-25.5,16.1  c-6.5,3.3-23.9,11.3-48,14.6c-10.4,1.4-36.2,3.8-67.1-5.5c-23.8-7.1-40.3-18.1-47.7-23.4c-2.8-2-30.7-22.6-47-53.9  c-8.1-15.6-12.5-32.3-12.8-33.7c-1.1-4.1-1.8-7.9-1.9-8.5c-0.2-1.2-2.3-12-2.9-23.6c-1.2-24.8,4.9-47.7,5.4-49.5  c1.9-7,6.4-21.5,15.9-37.9c5.4-9.3,10.6-16,12.9-19c4.5-5.6,13.4-16,27-26.5c15.2-11.7,29.2-18,36.1-20.8c2.8-1.1,13.1-5.2,27.3-8.2  c8.2-1.7,21.3-3.9,37.5-3.7c17.4,0.2,30.3,3,33.1,3.7c18.4,4.1,31.3,10.7,35.1,12.6c3.2,1.7,15.7,8.3,29.1,20.3  c2.1,1.8,6.8,6.2,12.4,12.4c4.6,5.1,9.3,10.5,14,18.6c2.4,4.2,5.3,9.2,7.5,16.5c2,6.8,2.5,12.5,2.7,15.7c0.2,4.1,0.5,12.4-3,22.3  c-1.1,3.1-2.8,7.8-6.7,12.9c-1.1,1.5-4.7,6-10.9,10c-6.1,4-11.5,5.4-15.5,6.5c-2.7,0.7-6,1.5-10.5,1.7c-2.4,0.1-6.6,0-11.8-1.3  c-1.6-0.4-6.5-1.7-12-5.1c-3.7-2.3-6.2-4.5-7.9-6c-3.5-3.2-5.6-5.9-8.2-9.2c-1.6-2-3.2-4.2-8.3-12c-5-7.6-14.2-25.6-17.2-29.4  c-1.3-1.6-2.8-3.1-2.8-3.1c-0.9-0.8-1.8-1.7-3.1-2.6c-0.9-0.6-2.3-1.6-4.3-2.2c-1.2-0.4-2.2-0.7-3.6-0.6c-2.1,0.1-3.6,1.2-4.2,1.6  c-0.6,0.4-1.8,1.4-3.1,3.8c-1.1,2-1.5,3.9-2.1,7.8c-0.7,5-1,8.7-1,8.7c-0.2,4.4-0.2,7.5-0.1,10.9c0.1,3.5-0.1,12.5-0.1,19.1  c5.7,0,23.6,0,29.3,0c0,7.2-0.3,16.6-0.3,23.8c-5.7,0-23.3,0-29,0c0,33,0,60.3,0.1,93.2c-7.7,0-15.3,0-23,0.1c0-33.2,0-60.1,0-93.3  c-3.1-0.1-24.7,0.1-27.7,0c0-7,0-17.1,0-24.1c2.9-0.1,24.4,0.4,27.2,0.3c0-8.4-0.1-20.4-0.1-28c0,0,0-4.5,0.2-11.4  c0.3-7.4,0.5-9.2,0.8-10.5c0.5-2.9,1.3-6.7,3.7-11c2.4-4.2,5.2-6.7,5.9-7.3c3-2.6,5.8-3.8,8.2-4.8c4.1-1.8,7.5-2.4,8.5-2.6  c6.3-1.1,11.3-0.2,13.2,0.2c6,1.3,10,3.8,13.4,6c7.5,4.8,16.4,17,20.3,23.9c4,7.1,4.2,7.8,7.1,12.8c1.4,2.4,3.2,5.2,6.9,10.8  c1.6,2.4,3.2,4.9,5.8,7.9c1.1,1.2,1.8,2.1,2.9,3.1c1.7,1.6,4.6,4.2,9.1,5.7c3.6,1.2,6.8,1.2,8.3,1.1c4.5-0.3,7.7-1.9,9.4-2.8  c3.1-1.6,5.1-3.4,5.5-3.8c0.5-0.4,1.9-1.9,3.4-4.1c1.4-2.2,2.1-4.1,2.5-5.2c0.1-0.4,0.7-2.3,1.1-5.3c0.2-2,0.5-5.3,0-9.1  c-0.7-5.5-2.6-10-4.6-14.1c-3.1-6.2-6.9-14.1-14.9-22.9c-7.9-8.8-15.4-13.4-23.4-18.3c-15.9-9.9-29.6-14.2-32.8-15.2  c-7-2.2-20-6-37-5.8c-8.1,0.1-14.6,1.1-18.8,1.7c-6,0.9-14.8,2.7-24.9,6.1c-7.3,2.4-21.7,7.4-37.7,18.8  c-14.2,10.1-23,20.6-26.7,25.2c-5.2,6.6-8.6,12.2-9.8,14.3c-0.9,1.6-4.8,8.4-8.3,17.7c-7.2,18.8-8.6,36.2-9,41.5  c-1.5,23.4,3,41.1,4.2,45.7c2.8,10.5,8.1,24.8,18.2,39.7c14.1,20.9,30.6,32.6,38.3,37.6c6.7,4.3,23.4,14.1,46.9,18.6  c4.1,0.8,16.6,3,33,2.1c18.7-0.9,32.3-5.3,35.8-6.5c11.6-3.8,20.6-8.7,26.7-12.4c2.7-1.6,11.5-7.2,21.4-16.5  c8-7.5,13.2-14.2,16.3-18.2c4.6-6,8.2-11.5,10.9-15.9C390.3,324.3,396.8,328.4,403.4,332.5z"></path></svg>